<svg xmlns="http://www.w3.org/2000/svg" xmlns:xlink="http://www.w3.org/1999/xlink" viewBox="113.07 232.61 799.1 557.21">
	<path fill="#2563EB" transform="scale(2 2)" d="M107.879 358.607L107.729 358.805C103.935 363.754 85.7178 383.466 80.3006 387.222C75.0945 390.832 67.0028 389.999 62.2003 386.156C54.8601 380.283 56.7513 368.7 56.7584 360.397L56.7616 306.234C56.7543 260.927 67.9333 228.514 102.382 196.723C114.177 185.838 111.306 192.152 117.696 176.679L125.516 157.851C135.092 135.305 147.016 119.455 173.896 116.531C188.48 115.119 203.434 120.42 214.015 130.5C220.728 136.896 219.192 137.634 227.907 143.68C245.956 156.198 253.233 181.07 240.09 199.638C235.855 190.354 223.693 184.152 214.068 183.144L206.692 190.203L206.692 218.325C213.482 227.382 217.154 239.67 219.842 250.56C229.092 288.041 220.785 323.1 201.235 355.38C208.457 365.473 206.638 369.869 206.692 380.651L420.402 380.655C433.003 380.656 441.17 379.917 441.276 364.644L441.265 204.21C441.264 194.13 444.711 174.612 430.348 172.837C425.702 172.264 418.758 172.765 413.835 172.765L256.589 172.76C255.457 167.683 253.652 163.274 251.469 158.585L352.125 158.585L421.45 158.579C439.918 158.586 454.649 163.168 455.576 185.373C456.066 197.086 455.655 208.988 455.649 220.72L455.655 341.69C455.656 360.659 460.53 386.348 437.331 393.573C430.929 395.567 417.992 394.746 410.875 394.746L143.04 394.752C128.198 394.75 110.458 396.732 104.991 378.244C102.842 370.975 104.404 365.072 107.879 358.607ZM176.92 131.107C150.349 132.665 144.026 150.836 135.47 171.647C133.546 176.329 131.377 180.908 129.452 185.59C123.178 200.844 125.518 195.95 112.597 206.135C120.673 204.426 130.893 202.471 138.321 207.245C168.977 226.95 132.874 299.08 111.623 315.748C113.319 330.689 117.774 338.697 123.996 351.315C135.946 351.28 143.998 349.639 153.139 358.707L153.856 359.423C157.042 355.86 160.181 353.726 164.254 351.315L164.251 319.816C164.241 316.24 162.851 303.191 165.472 300.632C173.927 292.376 171.672 320.689 171.697 329.375L171.697 351.315C176.152 351.316 181.325 351.037 185.573 352.463C209.645 317.223 217.753 273.255 198.954 233.495C190.213 215.006 192.259 222.055 192.332 199.638C189.341 200.191 186.373 201.116 183.37 201.536C149.813 206.224 133.647 167.97 144.4 166.252C150.306 165.309 149.922 172.669 151.702 176.506C161.733 198.137 189.305 198.383 202.174 179.607C188.781 170.028 192.048 149.914 204.684 141.477C197.013 134.352 187.501 130.301 176.92 131.107ZM98.9004 329.375C91.8905 335.938 76.7143 351.462 70.9485 359.423L70.9485 376.409C71.8881 375.71 72.8558 375.038 73.6973 374.22C82.4477 365.586 96.2812 352.34 103.728 342.79C103.066 341.159 99.3176 329.719 98.9004 329.375ZM126.135 360.211C114.595 364.075 113.576 380.543 126.95 380.651C126.967 378.59 126.341 372.258 127.484 371.025C129.087 369.298 137.317 369.217 139.929 369.743L139.929 380.651C143.03 380.819 146.141 380.637 149.245 380.651C149.352 359.922 145.932 360.091 126.135 360.211ZM169.569 360.211C159.13 363.252 159.935 371.459 159.965 380.651C163.225 380.931 166.312 380.923 169.569 380.651C169.573 378.502 168.972 372.235 170.241 370.778C171.755 369.038 180.677 368.89 182.757 370.849C182.882 374.115 182.756 377.384 182.757 380.651C185.998 380.913 189.088 380.939 192.332 380.651C192.383 362.458 190.112 358.325 169.569 360.211Z"/>
	<path fill="#2563EB" transform="scale(2 2)" d="M177.574 163.471C161.528 165.82 157.693 142.586 173.896 139.311C189.05 137.951 192.354 159.331 177.574 163.471ZM173.896 147.258C168.45 150.036 171.488 156.334 176.92 155.472C182.013 152.938 179.856 147.124 173.896 147.258Z"/>
	<path fill="#2563EB" transform="scale(2 2)" d="M279.504 296.714L259.84 296.728C238.489 296.75 238.765 293.711 238.745 275.036L238.739 241.821C238.749 224.343 243.319 224.82 255.484 212.641C260.858 207.26 266.563 198.634 274.624 197.517C281.023 197.481 315.564 196.877 318.938 198.248C327.827 201.859 325.5 212.881 325.501 220.579L325.504 271.372C325.518 280.098 328.133 292.908 317.794 296.714L317.794 339.035L341.484 339.035L341.484 263.772L335.691 263.772L335.691 256.442L393.985 256.423C416.283 256.379 411.296 267.856 411.251 286.125L411.264 319.205C411.265 331.817 414.128 345.92 396.538 346.594C388.494 346.902 380.364 346.658 372.312 346.654L304.195 346.661C279.412 346.685 279.482 342.794 279.485 321.197L279.504 296.714ZM291.153 227.675C254.927 227.992 260.354 265.922 284.689 268.767L294.895 268.767L294.895 253.753C291.443 253.789 284.971 254.701 282.292 252.189C280.066 250.102 280.086 246.477 282.35 244.427C285.134 241.908 291.403 242.781 294.895 242.815L294.895 227.675C293.655 227.662 292.39 227.596 291.153 227.675ZM348.79 263.772L348.79 339.035L372.459 339.035L372.459 263.772L348.79 263.772ZM379.787 263.772C379.786 288.847 379.464 313.965 379.787 339.035C385.291 339.051 397.791 340.612 402.269 337.588C402.81 336.891 403.337 336.216 403.778 335.452L403.788 275.059C403.791 272.377 404.709 266.674 402.501 264.656C400.659 262.972 383.463 263.764 379.787 263.772ZM286.829 296.714L286.819 320.289C286.823 343.938 288.309 338.905 310.401 339.035L310.401 296.714L286.829 296.714Z"/>
</svg>